<?xml version="1.0" standalone="no"?>
<!DOCTYPE svg PUBLIC "-//W3C//DTD SVG 20010904//EN"
 "http://www.w3.org/TR/2001/REC-SVG-20010904/DTD/svg10.dtd">
<svg version="1.0" xmlns="http://www.w3.org/2000/svg"
 width="352.000000pt" height="332.000000pt" viewBox="0 0 352.000000 332.000000"
 preserveAspectRatio="xMidYMid meet">

<g transform="translate(0.000000,332.000000) scale(0.100000,-0.100000)"
fill="#000000" stroke="none">
<path d="M3160 3174 c-24 -13 -56 -24 -70 -24 -58 0 -130 -31 -173 -73 -23
-23 -47 -51 -53 -62 -12 -20 -12 -19 -40 7 -39 36 -120 75 -185 89 -62 14
-225 7 -257 -10 -31 -17 -29 -65 8 -138 58 -115 187 -211 328 -243 l52 -12
-21 -38 c-63 -112 -185 -184 -475 -279 -345 -114 -551 -231 -761 -434 l-82
-79 -158 16 c-181 19 -416 21 -530 5 -283 -39 -490 -220 -523 -458 -23 -166
30 -345 126 -430 l47 -41 -56 -83 c-53 -77 -87 -143 -87 -167 0 -25 49 -60 84
-60 43 0 51 -13 60 -100 9 -77 18 -95 59 -120 63 -39 114 -26 270 64 l48 28
102 -20 c56 -12 127 -24 158 -28 l57 -6 11 -58 c26 -129 102 -230 174 -230
117 0 272 174 294 329 8 53 8 54 78 97 39 24 73 43 77 44 5 0 30 -16 58 -36
100 -72 232 -99 362 -75 138 27 184 81 181 216 -1 44 -9 105 -17 135 -8 30
-14 55 -13 56 1 0 32 21 69 47 112 79 185 176 283 381 60 125 72 143 169 246
57 61 125 142 151 180 145 218 164 463 58 783 -21 62 -38 116 -38 121 0 5 26
15 57 22 108 25 208 96 251 179 27 52 28 152 3 218 -27 73 -58 82 -136 41z
m87 -124 c5 -41 1 -59 -21 -105 -15 -30 -43 -67 -62 -81 -41 -32 -153 -74
-194 -74 -17 0 -39 -9 -49 -19 -22 -22 -19 -39 24 -156 89 -235 103 -454 40
-622 -35 -93 -120 -217 -212 -309 -99 -100 -135 -151 -185 -268 -70 -161 -206
-335 -301 -385 -26 -14 -28 -13 -67 32 -29 33 -68 60 -132 92 -95 47 -142 59
-117 29 8 -9 48 -43 90 -75 147 -111 191 -189 193 -341 1 -78 -1 -89 -23 -112
-35 -37 -84 -50 -186 -50 -80 0 -97 3 -158 32 -75 34 -158 108 -240 211 -28
35 -53 59 -55 53 -4 -14 42 -125 66 -160 l20 -28 -41 -26 c-105 -65 -208 -101
-357 -123 -130 -20 -247 -18 -360 5 -128 27 -175 26 -225 -5 -89 -54 -136 -75
-166 -75 -44 0 -69 25 -69 69 0 20 -4 52 -10 71 -7 25 -7 36 3 42 20 12 30 -8
32 -66 3 -67 16 -86 60 -86 77 0 169 117 196 249 l12 58 28 -11 c16 -5 32 -7
36 -3 7 8 -95 117 -110 117 -5 0 -7 -12 -5 -27 3 -24 -5 -33 -59 -70 -88 -59
-263 -121 -305 -107 -22 7 -19 14 60 135 l56 87 83 4 c118 6 124 21 17 41
-151 28 -221 93 -258 242 -69 276 79 504 381 587 67 18 106 21 283 22 136 0
251 -6 342 -17 75 -9 141 -17 146 -17 5 0 49 40 98 88 107 106 220 192 354
267 130 73 203 103 412 171 250 81 347 133 441 233 52 56 86 120 87 163 0 22
-6 29 -27 33 -148 31 -223 63 -287 123 -45 43 -96 119 -96 143 0 40 199 30
289 -16 50 -25 95 -69 106 -105 4 -13 15 -20 30 -20 19 0 28 10 44 45 46 103
77 128 197 151 41 7 87 20 102 28 33 18 40 9 49 -64z m-2606 -2399 c-14 -25
-79 -81 -94 -81 -9 0 -12 11 -9 35 5 40 37 64 85 65 24 0 26 -3 18 -19z m859
-129 c0 -47 -36 -117 -88 -173 -95 -103 -153 -117 -198 -49 -24 36 -69 168
-60 177 2 2 41 8 88 14 47 6 119 18 159 29 96 23 99 23 99 2z"/>
<path d="M965 1276 c-64 -28 -105 -106 -91 -173 17 -76 76 -123 156 -123 126
0 196 138 125 246 -20 30 -88 64 -130 63 -16 0 -44 -6 -60 -13z m49 -68 c14
-23 -3 -52 -33 -56 -42 -6 -67 38 -39 66 17 17 58 11 72 -10z m-59 -98 c0 -22
-29 -18 -33 3 -3 14 1 18 15 15 10 -2 18 -10 18 -18z"/>
</g>
</svg>
